<svg
          width="694"
          height="252"
          viewBox="0 0 694 252"
          fill="none"
          xmlns="http://www.w3.org/2000/svg"
        >
          <path
            d="M80.6527 207.37C94.5199 207.37 106.953 198.444 109.503 186.49L111.894 175.173L84.6376 175.81C70.2922 176.129 60.7286 182.983 60.7286 193.025C60.7286 201.632 68.8577 207.37 80.6527 207.37ZM51.1651 250.087C21.9962 250.087 0 229.844 0 202.429C0 165.928 30.7628 142.975 80.8121 141.86L119.226 141.063L121.298 130.861C121.776 128.152 121.935 127.036 121.935 125.92C121.935 117.791 113.328 112.372 100.577 112.372C88.7818 112.372 80.0152 117.154 76.8273 126.398H19.9241C26.9374 89.5788 60.0911 67.1044 105.04 67.1044C151.742 67.1044 183.461 88.7818 183.461 120.82C183.461 125.283 182.824 131.499 182.027 135.006L158.118 247.537H96.7514L101.214 226.816H99.9393C91.3321 240.683 73.3207 250.087 51.1651 250.087Z"
            fill="white"
          />
          <path
            d="M178.909 126.398C178.909 90.3757 210.469 67.1044 259.402 67.1044C304.989 67.1044 337.186 91.3321 338.461 126.398H282.036C281.398 115.879 272.154 108.546 258.446 108.546C246.332 108.546 238.681 113.328 238.681 120.979C238.681 127.355 243.304 130.543 260.04 136.281L279.804 142.975C313.596 154.452 326.347 167.841 326.347 191.431C326.347 228.25 293.672 252 243.144 252C191.979 252 159.144 228.251 157.71 190.474H217.322C217.96 202.269 228.639 210.398 244.738 210.398C257.011 210.398 263.865 206.095 263.865 198.763C263.865 192.706 258.924 189.199 243.144 183.78L227.205 178.361C194.37 167.203 178.909 150.626 178.909 126.398Z"
            fill="white"
          />
          <path
            d="M370.25 247.537H307.131L356.224 17.5332H419.184L394.637 133.093H395.913L452.178 71.5674H524.224L446.121 149.032L492.505 247.537H424.284L395.434 183.142L380.77 197.806L370.25 247.537Z"
            fill="white"
          />
          <path
            d="M473.129 247.537L510.586 71.5674H573.865L536.408 247.537H473.129ZM550.912 61.2068C532.582 61.2068 518.715 47.9772 518.715 30.6034C518.715 13.2296 532.582 0 550.912 0C569.243 0 583.11 13.2296 583.11 30.6034C583.11 47.9772 569.243 61.2068 550.912 61.2068Z"
            fill="white"
          />
          <path
            d="M631.388 246.413C591.848 246.413 569.024 232.902 569.024 206.522C569.024 202.018 569.345 194.941 570.953 186.898L585.258 118.215H558.737L569.024 71.5679H595.384L604.385 29.264H668.035L659.034 71.5679H693.752L683.787 118.215H649.229L635.728 181.429C635.245 183.038 634.924 186.577 634.924 188.507C634.924 197.675 640.871 201.375 655.498 201.375C662.248 201.375 665.302 201.053 667.07 200.41L657.426 244.161C652.604 245.448 641.353 246.413 631.388 246.413Z"
            fill="white"
          />
        </svg>